# 3ds Max Wavefront OBJ Exporter v0.94b - (c)2007 guruware
# File Created: 17.11.2009 22:43:14

mtllib N64 Logo.mtl

#
# object N64
#

v  -29.9780 -0.0000 29.8656
v  -29.9779 57.4380 29.8656
v  -29.9780 57.4613 12.8474
v  -29.9780 27.0653 12.8437
v  -29.9780 0.1119 12.8440
v  29.9664 -0.0000 12.8475
v  29.9662 57.2107 12.8450
v  29.9664 57.4581 29.8656
v  29.9660 0.0223 29.8656
v  13.1135 26.0875 12.8490
v  13.1084 0.0710 12.8494
v  -13.1251 30.6377 12.8489
v  -13.1130 57.2653 12.8492
v  -13.1250 26.0673 12.8489
v  13.1082 0.1136 29.8656
v  13.1131 57.4613 29.8656
v  13.1138 57.2734 12.8457
v  29.9596 29.6474 12.8466
v  13.1135 30.6485 12.8490
v  29.9654 26.0556 -13.3656
v  29.9654 0.0000 -30.2604
v  29.9654 57.4613 -30.2604
v  29.9654 57.4613 -13.3648
v  13.1132 26.0556 -13.3656
v  13.1130 0.0000 -30.2604
v  13.1137 0.0472 -13.3564
v  13.1076 27.1260 29.8656
v  29.9654 0.0472 -13.3564
v  13.1096 57.2813 -30.2604
v  13.1096 57.2813 -13.3660
v  13.1132 30.6589 -13.3654
v  13.1139 30.6647 -30.2605
v  -29.9782 57.4613 -30.2604
v  -29.9782 -0.0000 -30.2604
v  -29.9785 0.0000 -13.3627
v  -29.9782 57.2224 -13.3579
v  -13.1088 0.0869 -30.2604
v  -13.1262 26.1089 -30.2604
v  -13.1262 26.1089 -13.3656
v  -13.1088 0.0869 -13.3664
v  -13.1248 57.4613 -30.2604
v  -13.1259 30.6601 -13.3656
v  -29.9771 29.6832 -13.3611
v  -13.1272 57.2822 -13.3591
v  -13.1196 -0.0000 29.8656
v  -13.1266 0.0560 12.8443
v  -13.1105 57.1999 29.8656
v  -13.1146 29.6152 29.8660
# 48 vertices

g N64
usemtl 02___Default
s 1
f 1 2 3 4 
f 1 4 5 
f 6 7 8 9 
usemtl 01___Default
s 2
f 10 6 11 12 
f 12 3 13 10 
f 3 12 14 4 
s 4
f 15 11 6 9 
usemtl 04___Default
f 16 8 7 17 
usemtl 01___Default
s 2
f 18 6 10 19 
usemtl 02___Default
s 8
f 20 21 22 23 
s 1
f 24 25 26 19 
f 19 16 17 24 
f 16 19 10 27 
usemtl 01___Default
s 2
f 27 15 9 8 
f 16 27 8 
usemtl 02___Default
s 8
f 28 21 20 7 
f 28 7 18 
usemtl 01___Default
s 2
f 7 6 18 
f 21 28 26 25 
usemtl 04___Default
s 1
f 23 22 29 30 
usemtl 02___Default
f 25 24 31 32 
usemtl 01___Default
s 4
f 25 32 22 21 
usemtl 02___Default
s 2
f 33 34 35 36 
usemtl 01___Default
s 4
f 37 34 38 32 
f 29 22 32 38 
f 31 23 30 39 
f 39 35 40 31 
f 23 31 24 20 
usemtl 03___Default
f 19 26 28 18 
usemtl 01___Default
s 16
f 20 24 7 
f 24 17 7 
s 4
f 33 41 38 34 
s 1
f 37 40 35 34 
s 4
f 35 39 42 43 
f 35 43 36 
usemtl 04___Default
s 8
f 41 33 36 44 
usemtl 01___Default
s 2
f 45 1 5 46 
usemtl 03___Default
s 4
f 13 47 27 10 
usemtl 01___Default
s 1
f 12 11 15 48 
usemtl 04___Default
s 8
f 47 13 3 2 
usemtl 01___Default
s 2
f 48 15 27 47 
usemtl 03___Default
f 39 30 29 38 
usemtl 01___Default
f 40 37 32 31 
s 16
f 36 4 14 44 
f 2 1 45 47 
usemtl 02___Default
s 1
f 43 5 4 36 
s 32
f 14 45 46 42 
f 42 41 44 14 
f 42 39 38 41 
s 96
f 48 47 45 14 
s 32
f 48 14 12 
usemtl 03___Default
s 8
f 43 42 46 5 
# 44 polygons - 8 triangles

